<svg id="Layer_1" data-name="Layer 1" xmlns="http://www.w3.org/2000/svg" viewBox="0 0 174.31 59"><defs><style>.cls-1{fill:#f8b041;}.cls-2{fill:#f9b752;}.cls-3{fill:#f8b349;}.cls-4{fill:#626264;}.cls-5{fill:#f8b03e;}.cls-6{fill:#646466;}.cls-7{fill:#636365;}.cls-8{fill:#f8b449;}.cls-9{fill:#f8b040;}.cls-10{fill:#f9b652;}.cls-11{fill:#69696b;}.cls-12{fill:#68676a;}.cls-13{fill:#f9b854;}.cls-14{fill:#f8b03d;}.cls-15{fill:#6b6a6c;}.cls-16{fill:#f9b54e;}.cls-17{fill:#737274;}.cls-18{fill:#f9b54f;}.cls-19{fill:#f9bb5c;}.cls-20{fill:#f8b348;}.cls-21{fill:#6a696b;}.cls-22,.cls-26{fill:#fbaf34;}.cls-22,.cls-23,.cls-24{fill-rule:evenodd;}.cls-23{fill:#fbb133;}.cls-24{fill:#5a585d;}.cls-25{fill:#5b5a5d;}.cls-27{font-size:9.2px;fill:#231f20;font-family:Optima;}</style></defs><path class="cls-1" d="M45.29,19.61c-.21-.11-.51-.15-.5-.44s.11-.54.37-.52.58.11.54.44A.56.56,0,0,1,45.29,19.61Z"/><path class="cls-2" d="M13.29,20.22c.32,0,.38.16.39.41s-.21.39-.48.38-.32-.22-.32-.45S13.07,20.2,13.29,20.22Z"/><path class="cls-3" d="M14.2,19.52c0,.24-.06.39-.35.4s-.45-.1-.44-.42.14-.42.45-.42S14.2,19.28,14.2,19.52Z"/><path class="cls-4" d="M29.87,46.15c.32,0,.41.27.45.47s-.26.38-.45.44-.39-.26-.44-.45S29.71,46.3,29.87,46.15Z"/><path class="cls-2" d="M12.71,22.63c-.3,0-.33-.17-.34-.4s.08-.4.36-.4.43.17.41.45S13,22.65,12.71,22.63Z"/><path class="cls-1" d="M44.52,17.64c.17.13.47.15.44.42s-.1.46-.37.44-.46-.13-.43-.39A.47.47,0,0,1,44.52,17.64Z"/><path class="cls-5" d="M43.83,16.83c-.12.15-.12.46-.39.41s-.47-.12-.43-.38.07-.53.41-.44C43.61,16.46,43.83,16.55,43.83,16.83Z"/><path class="cls-6" d="M33.2,46.28a.45.45,0,0,1-.46.33c-.26,0-.36-.26-.37-.44s.26-.35.45-.36S33.12,46.06,33.2,46.28Z"/><path class="cls-7" d="M31.11,47a.48.48,0,0,1-.39-.5.4.4,0,0,1,.48-.32c.21,0,.29.24.3.42S31.22,46.84,31.11,47Z"/><path class="cls-8" d="M44.69,17.27c-.13-.11-.41-.1-.32-.37s.1-.41.35-.35.41.11.33.36S45,17.29,44.69,17.27Z"/><path class="cls-9" d="M11.36,22.63c-.21,0-.27-.09-.27-.28s.07-.34.32-.34.33.09.33.33S11.56,22.63,11.36,22.63Z"/><path class="cls-9" d="M44,15.25c.2.09.42.14.38.38S44.23,16,44,16s-.38-.12-.31-.36S43.79,15.26,44,15.25Z"/><path class="cls-10" d="M12.17,21.37c-.26,0-.32-.14-.3-.35a.27.27,0,0,1,.32-.27c.21,0,.34.1.34.34S12.36,21.37,12.17,21.37Z"/><path class="cls-11" d="M32.1,47.61c-.29.06-.33-.17-.39-.33S31.84,47,32,47c.31-.09.38.17.42.36S32.24,47.57,32.1,47.61Z"/><path class="cls-12" d="M33.86,47.36a.39.39,0,0,1-.41.33c-.22,0-.28-.24-.3-.4s.23-.29.38-.3S33.78,47.22,33.86,47.36Z"/><path class="cls-13" d="M11.89,23.64c-.19,0-.3-.08-.3-.27a.23.23,0,0,1,.24-.25c.16,0,.31,0,.33.23S12.07,23.63,11.89,23.64Z"/><path class="cls-14" d="M42.81,15.17c.2.09.38.14.33.34s-.1.33-.31.29-.33-.11-.27-.31A1,1,0,0,1,42.81,15.17Z"/><path class="cls-15" d="M34.5,46.43c0,.21-.17.26-.31.27s-.23-.13-.26-.26.08-.3.26-.33S34.45,46.27,34.5,46.43Z"/><path class="cls-16" d="M43,13.52c-.07.08-.15.25-.24.26s-.35,0-.32-.26a.28.28,0,0,1,.26-.27C42.84,13.25,42.93,13.34,43,13.52Z"/><path class="cls-17" d="M36.26,47.3c0,.16-.14.23-.25.25s-.27-.16-.28-.31S35.87,47,36,47,36.22,47.16,36.26,47.3Z"/><path class="cls-18" d="M10.82,23.43c.15,0,.25.08.24.24a.22.22,0,0,1-.24.24c-.16,0-.23-.1-.24-.24A.21.21,0,0,1,10.82,23.43Z"/><path class="cls-19" d="M10.16,24.29c.21,0,.28.07.3.21s0,.22-.15.24-.27,0-.3-.17A.22.22,0,0,1,10.16,24.29Z"/><path class="cls-20" d="M43.23,14.7c-.23,0-.35-.12-.33-.25a.27.27,0,0,1,.33-.25c.09,0,.2.07.2.19A.37.37,0,0,1,43.23,14.7Z"/><path class="cls-21" d="M34.94,47.45a.23.23,0,0,1-.22-.27c0-.14.11-.24.26-.21a.26.26,0,0,1,.23.27C35.2,47.41,35.07,47.44,34.94,47.45Z"/><path class="cls-22" d="M14.32,18.45c.74.05.63-.38.63,1.84l-.56.12-.06,1c-.48,0-.48-.28-.46.95C20.34,19.88,26.79,20,32.71,24c3.06,2.09,2.26,2,4.21,3.75.95-.49,2.53-3,3.18-4.29a17.15,17.15,0,0,0,1.78-5.65,15.21,15.21,0,0,0-1.25-1.15A19,19,0,0,0,27.89,12.3c-4.82,0-11.36,2.86-13.57,6.15Z"/><path class="cls-23" d="M43.5,18.45c.19-.69-.36-.76-.36-.76-.31.52-.61,3.55-2.11,6.4a23,23,0,0,1-3.5,5l-2.2,2A19.3,19.3,0,0,1,26.52,35c0,1.35,1.73,4.47,2.37,5.4a27.84,27.84,0,0,0,3.59,4c1.6-.11,4.57-1.77,5.73-2.57a19.6,19.6,0,0,0,8.6-16c0-1.64-.08-4.76-.86-5.83-.44.56,0,.19-.55.43A5,5,0,0,0,44,19.55l.22-.66Z"/><path class="cls-24" d="M28.65,46.9l.15-.15-.12-.38,1.51-.93.38.51.79-.49.47.39.52-.41c-2.91-1.93-5.55-6.1-6.68-9.42-2-5.82-1-8.82.25-13.79a18.23,18.23,0,0,0-6.11-.37,15.09,15.09,0,0,0-5.18,1.42,20.31,20.31,0,0,0,2.75,15.55c2.26,3.43,7.5,7.7,11.27,8.07Z"/><path class="cls-25" d="M63.6,20.15V34.91l-.67,0-1.13-.1q-.4,0-1,.06l-.75.06V20.15c-.85,0-1.59,0-2.22.08s-1.38.14-2.24.25l.08-.59a3.77,3.77,0,0,0,0-.44,3.42,3.42,0,0,0,0-.59c0-.17-.06-.31-.07-.42H67.9c0,.23-.06.42-.08.59a2.43,2.43,0,0,0,0,.42,2.73,2.73,0,0,0,0,.61c0,.17,0,.31.07.42l-2.11-.24Q64.71,20.15,63.6,20.15Z"/><path class="cls-25" d="M70,34.91V23.27c.27,0,.58.06.93.08l.73,0a9.3,9.3,0,0,0,1-.05l.69-.07v3A5,5,0,0,1,74.57,24,3.78,3.78,0,0,1,77.24,23c0,.42-.08.94-.1,1.55s0,1.19,0,1.72l-.22.19a1.39,1.39,0,0,0-.55-.24,3.11,3.11,0,0,0-.67-.07,2.35,2.35,0,0,0-1.41.42,2.1,2.1,0,0,0-.8,1.16,2.22,2.22,0,0,0-.12.71q0,.45,0,1.05v5.38c-.27,0-.47,0-.6,0-.56,0-.91-.07-1-.07a9.3,9.3,0,0,0-1,.05Z"/><path class="cls-25" d="M88.14,26.27V32.8a1.2,1.2,0,0,0,.25.9,1.51,1.51,0,0,0,1,.23v.55a10.35,10.35,0,0,1-1.09.43,3.63,3.63,0,0,1-1.07.22,2.4,2.4,0,0,1-1.45-.47,2.64,2.64,0,0,1-.93-1.29,3.36,3.36,0,0,1-1.29,1.3,3.66,3.66,0,0,1-1.78.46,3.61,3.61,0,0,1-2.45-.8,3,3,0,0,1-1-2.37,2.85,2.85,0,0,1,1.05-2.43,10.14,10.14,0,0,1,3.34-1.25L83.6,28a3.67,3.67,0,0,0,.86-.38,1.2,1.2,0,0,0,.28-.41,1.6,1.6,0,0,0,.08-.53,1.89,1.89,0,0,0-.71-1.47,2.26,2.26,0,0,0-1.57-.64,3.76,3.76,0,0,0-2,.58,2,2,0,0,0-.94.91h-.16l-.32-1.49a5.58,5.58,0,0,1,2-1.15,7.58,7.58,0,0,1,2.41-.41,6,6,0,0,1,3,.7A2.74,2.74,0,0,1,88.14,26.27ZM84.82,31V28.62L83.67,29a4.16,4.16,0,0,0-1.22.63,1.85,1.85,0,0,0-.6.83,3.32,3.32,0,0,0-.17,1.15A2.81,2.81,0,0,0,82,33a1.07,1.07,0,0,0,1,.56,1.53,1.53,0,0,0,1.46-.85A3.73,3.73,0,0,0,84.82,31Z"/><path class="cls-25" d="M91.06,34.91V23.27l.88.08.73,0a8.41,8.41,0,0,0,.93-.05l.66-.07V25a6.94,6.94,0,0,1,1.63-1.41A4,4,0,0,1,98,23.05a3.38,3.38,0,0,1,3,1.32,6.34,6.34,0,0,1,.77,3.51v7l-.6,0c-.56,0-.92-.07-1.06-.07a9.3,9.3,0,0,0-1,.05l-.7.07v-6a8.16,8.16,0,0,0-.33-2.76,1.65,1.65,0,0,0-1.63-1.1,1.84,1.84,0,0,0-1.83,1.58,10.43,10.43,0,0,0-.26,2.74v5.52l-.6,0c-.56,0-.92-.07-1.06-.07a9.3,9.3,0,0,0-1,.05Z"/><path class="cls-26" d="M114.35,29.1h-6.87a5.94,5.94,0,0,0,.7,3.17,2.89,2.89,0,0,0,2.64,1.3,4,4,0,0,0,1.47-.29,5.12,5.12,0,0,0,1.34-.8l.29.22-.53,1.35a6.48,6.48,0,0,1-7.92-.58,6.58,6.58,0,0,1-1.54-4.66,5.85,5.85,0,0,1,1.48-4.16,5.18,5.18,0,0,1,4-1.6,4.36,4.36,0,0,1,3.86,1.73A7.45,7.45,0,0,1,114.35,29.1ZM107.48,28H111a9.47,9.47,0,0,0-.24-2.38q-.39-1.44-1.35-1.44c-.77,0-1.31.47-1.63,1.42A7.53,7.53,0,0,0,107.48,28Z"/><path class="cls-25" d="M120.42,24.8v6.84a4.63,4.63,0,0,0,.21,1.67c.13.33.46.5,1,.5a4.13,4.13,0,0,0,1.06-.17v.93a7.32,7.32,0,0,1-2.5.56A2.7,2.7,0,0,1,117.71,34a5.15,5.15,0,0,1-.6-2.78V24.8h-1.63a2,2,0,0,0,0-.43v-1.1h1.58v-2.7c.4-.16.92-.38,1.56-.67l1.75-.81v4.18h2l0,.44c0,.15,0,.26,0,.32v.77Z"/><path class="cls-25" d="M134.35,29.1h-6.87a5.84,5.84,0,0,0,.7,3.17,2.89,2.89,0,0,0,2.64,1.3,4,4,0,0,0,1.46-.29,5.17,5.17,0,0,0,1.35-.8l.28.22-.52,1.35a6.5,6.5,0,0,1-7.93-.58,6.63,6.63,0,0,1-1.53-4.66,5.89,5.89,0,0,1,1.47-4.16,5.21,5.21,0,0,1,4-1.6,4.38,4.38,0,0,1,3.86,1.73A7.53,7.53,0,0,1,134.35,29.1ZM127.48,28H131a9.47,9.47,0,0,0-.24-2.38c-.25-1-.7-1.44-1.34-1.44s-1.31.47-1.63,1.42A7.26,7.26,0,0,0,127.48,28Z"/><path class="cls-25" d="M146.61,24.13l-.91,2.5h-.58a3.12,3.12,0,0,0-.74-1.75,2.19,2.19,0,0,0-1.7-.75,2.54,2.54,0,0,0-2.33,1.68,6.86,6.86,0,0,0-.63,3,6,6,0,0,0,.88,3.49,3.17,3.17,0,0,0,2.77,1.24,3.3,3.3,0,0,0,1.38-.3,3.22,3.22,0,0,0,1.12-.83l.41.33-.58,1.44a3.5,3.5,0,0,1-1.46.65,7.2,7.2,0,0,1-1.78.27,6.62,6.62,0,0,1-4.54-1.49,5.55,5.55,0,0,1-1.75-4.35,6.07,6.07,0,0,1,1.73-4.56,6.29,6.29,0,0,1,4.58-1.68,9.5,9.5,0,0,1,2.22.26A6.1,6.1,0,0,1,146.61,24.13Z"/><path class="cls-25" d="M151.73,16.67v8.25a5.83,5.83,0,0,1,1.6-1.29,3.92,3.92,0,0,1,1.95-.58,3.88,3.88,0,0,1,2.81,1.1,2.91,2.91,0,0,1,.81,1.3,6.63,6.63,0,0,1,.2,1.75v7.71l-.6,0c-.56,0-.92-.07-1.06-.07a9.3,9.3,0,0,0-1,.05l-.7.07v-6a8.16,8.16,0,0,0-.33-2.76,1.65,1.65,0,0,0-1.64-1.1,1.85,1.85,0,0,0-1.87,1.58,12,12,0,0,0-.21,2.74v5.52l-.6,0c-.56,0-.92-.07-1.06-.07a9.3,9.3,0,0,0-1,.05l-.7.07V16.67c.28,0,.58.06.93.08l.73,0a9.3,9.3,0,0,0,1-.05Z"/><text class="cls-27" transform="translate(58.45 44.57)">SOFTWARE SOLUTIONS</text></svg>